<?xml version="1.0" encoding="UTF-8"?>
<svg width="300" height="350" viewBox="0 0 300 350" xmlns="http://www.w3.org/2000/svg" version="1.1">
  <!-- Jar body -->
  <path d="M50,50 
           h200 
           a30,30 0 0 1 30,30 
           v200 
           a50,50 0 0 1 -50,50 
           h-160 
           a50,50 0 0 1 -50,-50 
           v-200 
           a30,30 0 0 1 30,-30 
           z"
        fill="none" stroke="black" stroke-width="4"/>
  <!-- Jar lid -->
  <rect x="40" y="20" width="220" height="30" rx="10" fill="none" stroke="black" stroke-width="4"/>
  <rect x="90" y="10" width="120" height="20" rx="10" fill="none" stroke="black" stroke-width="4"/>
  <!-- Cookie -->
  <circle cx="150" cy="200" r="70" fill="#d2a679"/>
  <!-- Bite notch -->
  <circle cx="200" cy="150" r="35" fill="white"/>
  <!-- Chocolate chips -->
  <circle cx="130" cy="180" r="12" fill="#8b5a2b"/>
  <circle cx="170" cy="230" r="10" fill="#8b5a2b"/>
  <circle cx="110" cy="230" r="8" fill="#8b5a2b"/>
</svg>