<svg width="4753" height="1599" xmlns="http://www.w3.org/2000/svg" xmlns:xlink="http://www.w3.org/1999/xlink" xml:space="preserve" overflow="hidden"><g transform="translate(-2571 -3222)"><g><g><g><g><path d="M2982.94 3695.77 2955.54 3695.77 2955.54 4627.53 3503.46 4627.53 3503.46 3695.77 2982.94 3695.77ZM3476.06 4600.13 2982.94 4600.13 2982.94 3723.17 3476.06 3723.17Z" fill="#000000" fill-rule="nonzero" fill-opacity="1"/><path d="M3544.55 3558.79 2914.45 3558.79C2899.34 3558.84 2887.1 3571.08 2887.05 3586.19L2887.05 4737.15C2887.1 4752.26 2899.34 4764.5 2914.45 4764.55L3544.55 4764.55C3559.66 4764.49 3571.89 4752.26 3571.95 4737.15L3571.95 3586.19C3571.9 3571.08 3559.66 3558.84 3544.55 3558.79ZM3544.55 4737.15 2914.45 4737.15 2914.45 3586.19 3544.55 3586.19Z" fill="#000000" fill-rule="nonzero" fill-opacity="1"/><path d="M3174.71 3654.68 3297.99 3654.68C3305.56 3654.68 3311.69 3648.54 3311.69 3640.98 3311.69 3633.41 3305.56 3627.28 3297.99 3627.28L3174.71 3627.28C3167.14 3627.28 3161.01 3633.41 3161.01 3640.98 3161.01 3648.54 3167.14 3654.68 3174.71 3654.68Z" fill="#000000" fill-rule="nonzero" fill-opacity="1"/></g></g></g><g><g><g><path d="M147.187 219.146 166.812 219.146 166.812 245.312 147.187 245.312Z" fill="#000000" fill-rule="nonzero" fill-opacity="1" transform="matrix(1 0 0 1.00319 6999 3274)"/><path d="M147.187 258.396 166.812 258.396 166.812 278.021 147.187 278.021Z" fill="#000000" fill-rule="nonzero" fill-opacity="1" transform="matrix(1 0 0 1.00319 6999 3274)"/><path d="M179.896 258.396 274.75 258.396 274.75 278.021 179.896 278.021Z" fill="#000000" fill-rule="nonzero" fill-opacity="1" transform="matrix(1 0 0 1.00319 6999 3274)"/><path d="M39.25 258.396 134.104 258.396 134.104 278.021 39.25 278.021Z" fill="#000000" fill-rule="nonzero" fill-opacity="1" transform="matrix(1 0 0 1.00319 6999 3274)"/><path d="M249.957 166.812 64.0429 166.812C57.5758 166.812 52.3333 172.055 52.3333 178.522L52.3333 207.436C52.3333 213.903 57.5758 219.146 64.0429 219.146L249.957 219.146C256.424 219.146 261.667 213.903 261.667 207.436L261.667 178.522C261.667 172.055 256.424 166.812 249.957 166.812ZM85.0416 199.521C81.4287 199.521 78.5 196.592 78.5 192.979 78.5 189.366 81.4287 186.437 85.0416 186.437 88.6546 186.437 91.5833 189.366 91.5833 192.979 91.5833 196.592 88.6546 199.521 85.0416 199.521ZM117.75 199.521C114.137 199.521 111.208 196.592 111.208 192.979 111.208 189.366 114.137 186.437 117.75 186.437 121.363 186.437 124.292 189.366 124.292 192.979 124.292 196.592 121.363 199.521 117.75 199.521ZM150.458 199.521C146.845 199.521 143.917 196.592 143.917 192.979 143.917 189.366 146.845 186.437 150.458 186.437 154.071 186.437 157 189.366 157 192.979 157 196.592 154.071 199.521 150.458 199.521Z" fill="#000000" fill-rule="nonzero" fill-opacity="1" transform="matrix(1 0 0 1.00319 6999 3274)"/><path d="M249.957 101.396 64.0429 101.396C57.5758 101.396 52.3333 106.638 52.3333 113.105L52.3333 142.02C52.3333 148.487 57.5758 153.729 64.0429 153.729L249.957 153.729C256.424 153.729 261.667 148.487 261.667 142.02L261.667 113.105C261.667 106.638 256.424 101.396 249.957 101.396ZM85.0416 134.104C81.4287 134.104 78.5 131.175 78.5 127.562 78.5 123.949 81.4287 121.021 85.0416 121.021 88.6546 121.021 91.5833 123.949 91.5833 127.562 91.5833 131.175 88.6546 134.104 85.0416 134.104ZM117.75 134.104C114.137 134.104 111.208 131.175 111.208 127.562 111.208 123.949 114.137 121.021 117.75 121.021 121.363 121.021 124.292 123.949 124.292 127.562 124.292 131.175 121.363 134.104 117.75 134.104ZM150.458 134.104C146.845 134.104 143.917 131.175 143.917 127.562 143.917 123.949 146.845 121.021 150.458 121.021 154.071 121.021 157 123.949 157 127.562 157 131.175 154.071 134.104 150.458 134.104Z" fill="#000000" fill-rule="nonzero" fill-opacity="1" transform="matrix(1 0 0 1.00319 6999 3274)"/><path d="M249.957 35.9791 64.0429 35.9791C57.5758 35.9791 52.3333 41.2216 52.3333 47.6887L52.3333 76.6029C52.3333 83.07 57.5758 88.3125 64.0429 88.3125L249.957 88.3125C256.424 88.3125 261.667 83.07 261.667 76.6029L261.667 47.6887C261.667 41.2216 256.424 35.9791 249.957 35.9791ZM85.0416 68.6875C81.4287 68.6875 78.5 65.7588 78.5 62.1458 78.5 58.5328 81.4287 55.6041 85.0416 55.6041 88.6546 55.6041 91.5833 58.5328 91.5833 62.1458 91.5833 65.7588 88.6546 68.6875 85.0416 68.6875ZM117.75 68.6875C114.137 68.6875 111.208 65.7588 111.208 62.1458 111.208 58.5328 114.137 55.6041 117.75 55.6041 121.363 55.6041 124.292 58.5328 124.292 62.1458 124.292 65.7588 121.363 68.6875 117.75 68.6875ZM150.458 68.6875C146.845 68.6875 143.917 65.7588 143.917 62.1458 143.917 58.5328 146.845 55.6041 150.458 55.6041 154.071 55.6041 157 58.5328 157 62.1458 157 65.7588 154.071 68.6875 150.458 68.6875Z" fill="#000000" fill-rule="nonzero" fill-opacity="1" transform="matrix(1 0 0 1.00319 6999 3274)"/></g></g></g><text fill="#343433" fill-opacity="1" font-family="Montserrat,Montserrat_MSFontService,sans-serif" font-style="normal" font-variant="normal" font-weight="700" font-stretch="normal" font-size="110" text-anchor="start" direction="ltr" writing-mode="lr-tb" unicode-bidi="normal" text-decoration="none" transform="matrix(1 0 0 1 4634.97 3408)">Browser</text><text fill="#343433" fill-opacity="1" font-family="Montserrat,Montserrat_MSFontService,sans-serif" font-style="normal" font-variant="normal" font-weight="700" font-stretch="normal" font-size="110" text-anchor="start" direction="ltr" writing-mode="lr-tb" unicode-bidi="normal" text-decoration="none" transform="matrix(1 0 0 1 6260.24 3421)">Web Server</text><text fill="#343433" fill-opacity="1" font-family="Montserrat,Montserrat_MSFontService,sans-serif" font-style="normal" font-variant="normal" font-weight="700" font-stretch="normal" font-size="110" text-anchor="start" direction="ltr" writing-mode="lr-tb" unicode-bidi="normal" text-decoration="none" transform="matrix(1 0 0 1 3039.42 3427)">Phone</text><g><g><g><path d="M3229.95 3850.38C3157.85 3850.38 3099.4 3908.83 3099.4 3980.93 3099.4 4053.03 3157.85 4111.48 3229.95 4111.48 3302.05 4111.48 3360.5 4053.03 3360.5 3980.93 3360.5 3980.92 3360.5 3980.92 3360.5 3980.91 3360.53 3908.84 3302.12 3850.4 3230.05 3850.38 3230.02 3850.38 3229.99 3850.38 3229.95 3850.38ZM3244.27 4036.34 3224.41 4036.34 3224.41 3941.5C3222.74 3942.65 3220.97 3943.75 3219.1 3944.81 3217.24 3945.87 3215.32 3946.83 3213.34 3947.66 3211.21 3948.5 3208.96 3949.28 3206.61 3950 3204.25 3950.73 3201.67 3951.43 3198.85 3952.11L3198.85 3936.25C3200.75 3935.72 3202.48 3935.18 3204.04 3934.65 3205.59 3934.12 3207.14 3933.59 3208.66 3933.05 3210.18 3932.45 3211.71 3931.82 3213.23 3931.17 3214.75 3930.52 3216.27 3929.9 3217.79 3929.29 3219.24 3928.53 3220.7 3927.76 3222.18 3927 3223.67 3926.24 3225.13 3925.44 3226.58 3924.6 3228.19 3923.76 3229.76 3922.85 3231.32 3921.85 3232.87 3920.85 3234.45 3919.93 3236.06 3919.1L3244.27 3919.1Z" fill="#008347" fill-rule="nonzero" fill-opacity="1"/></g></g></g><g><g><g><path d="M3229.95 4180.38C3157.85 4180.38 3099.4 4238.83 3099.4 4310.93 3099.4 4383.03 3157.85 4441.48 3229.95 4441.48 3302.05 4441.48 3360.5 4383.03 3360.5 4310.93 3360.5 4310.92 3360.5 4310.92 3360.5 4310.92 3360.53 4238.85 3302.12 4180.4 3230.05 4180.38 3230.02 4180.38 3229.98 4180.38 3229.95 4180.38ZM3267.28 4369.47 3192.63 4369.47 3192.63 4358.51C3192.56 4353.92 3193.42 4349.36 3195.14 4345.11 3196.83 4341.09 3199.16 4337.38 3202.04 4334.11 3205.11 4330.64 3208.53 4327.5 3212.26 4324.75 3216.14 4321.86 3220.33 4319.04 3224.82 4316.3 3228.57 4314.05 3232.14 4311.5 3235.47 4308.66 3237.98 4306.52 3240.21 4304.07 3242.1 4301.38 3243.66 4299.15 3244.81 4296.65 3245.48 4294.01 3246.1 4291.32 3246.41 4288.56 3246.39 4285.79 3246.39 4283.39 3246.01 4281 3245.25 4278.72 3244.53 4276.52 3243.38 4274.48 3241.88 4272.73 3240.3 4270.94 3238.36 4269.53 3236.17 4268.6 3233.63 4267.53 3230.89 4267.01 3228.13 4267.06 3222.74 4267.04 3217.42 4268.29 3212.6 4270.72 3207.54 4273.29 3202.89 4276.59 3198.79 4280.53L3198.79 4262.72C3202.75 4259.04 3207.49 4256.31 3212.66 4254.73 3218.23 4253.08 3224.03 4252.27 3229.84 4252.33 3234.49 4252.3 3239.11 4252.99 3243.54 4254.39 3247.62 4255.66 3251.41 4257.69 3254.73 4260.38 3257.95 4263.04 3260.52 4266.4 3262.26 4270.2 3264.15 4274.41 3265.09 4278.99 3265.01 4283.6 3265.05 4287.75 3264.57 4291.9 3263.58 4295.93 3262.61 4299.71 3261.02 4303.31 3258.87 4306.58 3256.49 4310.18 3253.63 4313.44 3250.38 4316.28 3246.37 4319.77 3242.1 4322.94 3237.59 4325.75 3233.48 4328.34 3229.83 4330.74 3226.63 4332.94 3223.74 4334.91 3221.01 4337.1 3218.47 4339.51 3216.4 4341.44 3214.69 4343.72 3213.4 4346.24 3212.24 4348.64 3211.65 4351.28 3211.68 4353.95L3267.26 4353.95Z" fill="#0B234E" fill-rule="nonzero" fill-opacity="1"/></g></g></g><g><g><g><path d="M41.6666 41.6666 208.333 41.6666C222.141 41.6666 233.333 52.8596 233.333 66.6666L233.333 233.333C233.333 256.345 214.678 275 191.667 275L58.3333 275C35.3215 275 16.6667 256.345 16.6667 233.333L16.6667 66.6666C16.6667 52.8596 27.8596 41.6666 41.6666 41.6666Z" stroke="#000000" stroke-width="13.8889" stroke-linecap="butt" stroke-linejoin="miter" stroke-miterlimit="4" stroke-opacity="1" fill="none" fill-rule="nonzero" transform="matrix(1 0 0 1.00114 5150 3224)"/><path d="M208.333 16.6667C212.936 16.6667 216.667 20.3976 216.667 25L216.667 33.3333C216.667 37.9357 212.936 41.6666 208.333 41.6666L41.6666 41.6666C37.0643 41.6666 33.3333 37.9357 33.3333 33.3333L33.3333 25C33.3333 20.3976 37.0643 16.6667 41.6666 16.6667Z" stroke="#000000" stroke-width="13.8889" stroke-linecap="butt" stroke-linejoin="miter" stroke-miterlimit="4" stroke-opacity="1" fill="none" fill-rule="nonzero" transform="matrix(1 0 0 1.00114 5150 3224)"/><path d="M166.667 8.33333C171.269 8.33333 175 12.0643 175 16.6667L175 16.6667C175 21.269 171.269 25 166.667 25L83.3333 25C78.7309 25 75 21.269 75 16.6667 75 12.0643 78.7309 8.33333 83.3333 8.33333Z" stroke="#000000" stroke-width="13.8889" stroke-linecap="butt" stroke-linejoin="miter" stroke-miterlimit="4" stroke-opacity="1" fill="none" fill-rule="nonzero" transform="matrix(1 0 0 1.00114 5150 3224)"/><path d="M183.333 166.667C183.333 198.883 157.217 225 125 225 92.7834 225 66.6666 198.883 66.6666 166.667 66.6666 134.45 92.7834 108.333 125 108.333 157.217 108.333 183.333 134.45 183.333 166.667Z" fill="#D2A679" fill-rule="nonzero" fill-opacity="1" transform="matrix(1 0 0 1.00114 5150 3224)"/><path d="M195.833 125C195.833 141.108 182.775 154.167 166.667 154.167 150.558 154.167 137.5 141.108 137.5 125 137.5 108.892 150.558 95.8333 166.667 95.8333 182.775 95.8333 195.833 108.892 195.833 125Z" fill="#FFFFFF" fill-rule="nonzero" fill-opacity="1" transform="matrix(1 0 0 1.00114 5150 3224)"/><path d="M118.333 150C118.333 155.523 113.856 160 108.333 160 102.81 160 98.3333 155.523 98.3333 150 98.3333 144.477 102.81 140 108.333 140 113.856 140 118.333 144.477 118.333 150Z" fill="#8B5A2B" fill-rule="nonzero" fill-opacity="1" transform="matrix(1 0 0 1.00114 5150 3224)"/><path d="M150 191.667C150 196.269 146.269 200 141.667 200 137.064 200 133.333 196.269 133.333 191.667 133.333 187.064 137.064 183.333 141.667 183.333 146.269 183.333 150 187.064 150 191.667Z" fill="#8B5A2B" fill-rule="nonzero" fill-opacity="1" transform="matrix(1 0 0 1.00114 5150 3224)"/><path d="M98.3333 191.667C98.3333 195.348 95.3485 198.333 91.6666 198.333 87.9847 198.333 85 195.348 85 191.667 85 187.985 87.9847 185 91.6666 185 95.3485 185 98.3333 187.985 98.3333 191.667Z" fill="#8B5A2B" fill-rule="nonzero" fill-opacity="1" transform="matrix(1 0 0 1.00114 5150 3224)"/></g></g></g><text fill="#343433" fill-opacity="1" font-family="Montserrat,Montserrat_MSFontService,sans-serif" font-style="normal" font-variant="normal" font-weight="400" font-stretch="normal" font-size="110" text-anchor="start" direction="ltr" writing-mode="lr-tb" unicode-bidi="normal" text-decoration="none" transform="matrix(1 0 0 1 4724.2 3692)">ad.com</text><g><g><g><path d="M58.3334 80.7334 58.3334 86.9167 53.6667 86.9167 53.6667 80.7334C50.9834 79.8 49 77.2334 49 74.0834 49 70.2334 52.15 67.0834 56 67.0834 59.85 67.0834 63 70.2334 63 74.0834 63 77.1167 61.0167 79.6834 58.3334 80.7334ZM38.5 37.9167C38.5 28.2334 46.3167 20.4167 56 20.4167 65.6834 20.4167 73.5 28.2334 73.5 37.9167L73.5 50.8667 56 49.5834 38.5 50.8667 38.5 37.9167ZM80.5 51.3334 80.5 37.9167C80.5 24.3833 69.5334 13.4167 56 13.4167 42.4667 13.4167 31.5 24.3833 31.5 37.9167L31.5 51.3334 23.3333 51.9167 23.3333 96.2501 56 98.5834 88.6667 96.2501 88.6667 51.9167 80.5 51.3334Z" fill="#000000" fill-rule="nonzero" fill-opacity="1" transform="matrix(1.00893 0 0 1 4573 3598)"/></g></g></g><path d="M0-6.875 524.92-6.875 524.92 635.399 518.045 628.524 1181.23 628.524 1181.23 642.274 511.17 642.274 511.17 0 518.045 6.875 0 6.875ZM1143.44 605.398 1194.87 635.399 1143.44 665.4C1140.16 667.314 1135.95 666.206 1134.04 662.926 1132.12 659.646 1133.23 655.437 1136.51 653.523L1177.76 629.461 1177.76 641.338 1136.51 617.275C1133.23 615.362 1132.12 611.153 1134.04 607.873 1135.95 604.593 1140.16 603.485 1143.44 605.398Z" fill="#008347" fill-rule="nonzero" fill-opacity="1" transform="matrix(1 0 0 -1 3394 3948.4)"/><path d="M0-6.875 383.804-6.875 383.804 0.000360892 376.929-6.87464 756.936-6.87464 756.936 6.87536 370.054 6.87536 370.054 0 376.929 6.875 0 6.875ZM719.151-30.0006 770.581 0.000360892 719.151 30.0013C715.871 31.9145 711.661 30.8067 709.748 27.527 707.835 24.2472 708.943 20.0376 712.222 18.1244L753.472-5.93812 753.472 5.93884 712.222-18.1237C708.943-20.0368 707.835-24.2465 709.748-27.5263 711.661-30.806 715.871-31.9138 719.151-30.0006Z" fill="#008347" fill-rule="nonzero" fill-opacity="1" transform="matrix(1 0 0 -1 5446 3302)"/><rect x="4531" y="3571" width="675" height="1181" stroke="#02081C" stroke-width="18.3333" stroke-linecap="butt" stroke-linejoin="miter" stroke-miterlimit="8" stroke-dasharray="73.3333 55" stroke-opacity="1" fill="none"/><path d="M4564 3737 5168.64 3737" stroke="#0B234E" stroke-width="18.3333" stroke-linecap="square" stroke-linejoin="miter" stroke-miterlimit="8" stroke-dasharray="55 18.3333" stroke-opacity="1" fill="none" fill-rule="evenodd"/><g><g><g><path d="M5013.07 4121.18 4877.89 3986.04C4874.35 3982.38 4869.48 3980.29 4864.38 3980.25L4775.56 3980.25C4774.35 3980.25 4773.17 3980.32 4771.97 3980.43 4767.7 3970.24 4758.65 3962.83 4747.81 3960.66L4715.54 3954.21C4705.32 3952.2 4697.58 3943.78 4696.46 3933.42L4694 3911.31C4693.71 3908.69 4691.35 3906.81 4688.73 3907.1 4686.11 3907.39 4684.23 3909.75 4684.52 3912.37L4686.97 3934.47C4688.55 3948.96 4699.35 3960.75 4713.65 3963.57L4745.92 3970.02C4753.07 3971.45 4759.18 3976.08 4762.48 3982.58 4747.19 3988.11 4736.98 4002.6 4736.92 4018.86L4736.92 4107.18C4736.77 4112.32 4738.89 4117.26 4742.71 4120.7L4877.87 4255.84C4885.29 4263.44 4897.46 4263.58 4905.06 4256.16 4905.17 4256.05 4905.27 4255.95 4905.38 4255.84L5013.07 4148.21C5020.31 4140.65 5020.31 4128.73 5013.07 4121.18ZM5006.32 4141.46 4898.66 4249.09C4894.96 4252.96 4888.83 4253.1 4884.96 4249.4 4884.85 4249.3 4884.74 4249.2 4884.64 4249.09L4749.48 4113.96 4749.24 4113.73 4749.01 4113.52C4747.28 4111.87 4746.36 4109.56 4746.47 4107.18L4746.47 4018.86C4746.52 4006.79 4753.99 3996 4765.26 3991.7L4767.61 4003.42C4766.08 4004.25 4764.66 4005.29 4763.41 4006.5 4755.97 4013.96 4755.98 4026.05 4763.45 4033.49 4770.91 4040.93 4782.99 4040.92 4790.43 4033.46 4797.88 4026 4797.86 4013.91 4790.4 4006.47 4786.82 4002.9 4781.97 4000.89 4776.91 4000.9L4776.84 4000.9 4774.62 3989.81C4774.93 3989.81 4775.24 3989.77 4775.55 3989.77L4864.38 3989.77C4866.95 3989.81 4869.39 3990.89 4871.14 3992.76L5006.3 4127.9C5009.81 4131.73 5009.81 4137.61 5006.3 4141.44ZM4778.8 4010.64C4784.02 4011.63 4787.45 4016.67 4786.46 4021.89 4785.47 4027.11 4780.43 4030.54 4775.21 4029.55 4769.99 4028.55 4766.56 4023.52 4767.55 4018.3 4767.86 4016.64 4768.61 4015.1 4769.71 4013.82L4770.49 4017.74C4770.94 4019.96 4772.89 4021.55 4775.16 4021.55 4775.48 4021.55 4775.8 4021.52 4776.11 4021.46 4778.7 4020.95 4780.37 4018.43 4779.85 4015.85Z" fill="#000000" fill-rule="nonzero" fill-opacity="1"/></g></g></g><text fill="#343433" fill-opacity="1" font-family="Montserrat,Montserrat_MSFontService,sans-serif" font-style="normal" font-variant="normal" font-weight="400" font-stretch="normal" font-size="128" text-anchor="start" direction="ltr" writing-mode="lr-tb" unicode-bidi="normal" text-decoration="none" transform="matrix(1 0 0 1 4716.37 3898)">Sale!</text><text fill="#343433" fill-opacity="1" font-family="Montserrat,Montserrat_MSFontService,sans-serif" font-style="normal" font-variant="normal" font-weight="400" font-stretch="normal" font-size="128" text-anchor="start" direction="ltr" writing-mode="lr-tb" unicode-bidi="normal" text-decoration="none" transform="matrix(1 0 0 1 4582.02 4419)">42% OFF</text><rect x="4595.5" y="4492.5" width="544" height="168" stroke="#02081C" stroke-width="9.16667" stroke-linecap="butt" stroke-linejoin="miter" stroke-miterlimit="8" stroke-opacity="1" fill="none"/><text fill="#343433" fill-opacity="1" font-family="Montserrat,Montserrat_MSFontService,sans-serif" font-style="normal" font-variant="normal" font-weight="400" font-stretch="normal" font-size="128" text-anchor="start" direction="ltr" writing-mode="lr-tb" unicode-bidi="normal" text-decoration="none" transform="matrix(1 0 0 1 4705.19 4618)">Back</text><path d="M6224.79 4104.36 6492.86 4104.36 6492.86 4273.28 6224.79 4273.28Z" fill="#AEAEAD" fill-rule="evenodd" fill-opacity="1"/><path d="M6492.86 4104.36 6960.04 4104.36 6960.04 4273.28 6492.86 4273.28Z" fill="#AEAEAD" fill-rule="evenodd" fill-opacity="1"/><path d="M6224.79 4273.28 6492.86 4273.28 6492.86 4512.2 6224.79 4512.2Z" fill="#D7D7D6" fill-rule="evenodd" fill-opacity="1"/><path d="M6492.86 4273.28 6960.04 4273.28 6960.04 4512.2 6492.86 4512.2Z" fill="#D7D7D6" fill-rule="evenodd" fill-opacity="1"/><path d="M6224.79 4512.2 6492.86 4512.2 6492.86 4751.12 6224.79 4751.12Z" fill="#D7D7D6" fill-rule="evenodd" fill-opacity="1"/><path d="M6492.86 4512.2 6960.04 4512.2 6960.04 4751.12 6492.86 4751.12Z" fill="#D7D7D6" fill-rule="evenodd" fill-opacity="1"/><path d="M6492.86 4102.07 6492.86 4753.42" stroke="#FFFEFE" stroke-width="4.58333" stroke-linecap="butt" stroke-linejoin="round" stroke-miterlimit="10" stroke-opacity="1" fill="none" fill-rule="evenodd"/><path d="M6222.5 4273.28 6962.33 4273.28" stroke="#FFFEFE" stroke-width="13.75" stroke-linecap="butt" stroke-linejoin="round" stroke-miterlimit="10" stroke-opacity="1" fill="none" fill-rule="evenodd"/><path d="M6222.5 4512.2 6962.33 4512.2" stroke="#FFFEFE" stroke-width="4.58333" stroke-linecap="butt" stroke-linejoin="round" stroke-miterlimit="10" stroke-opacity="1" fill="none" fill-rule="evenodd"/><path d="M6224.79 4102.07 6224.79 4753.42" stroke="#FFFEFE" stroke-width="4.58333" stroke-linecap="butt" stroke-linejoin="round" stroke-miterlimit="10" stroke-opacity="1" fill="none" fill-rule="evenodd"/><path d="M6960.04 4102.07 6960.04 4753.42" stroke="#FFFEFE" stroke-width="4.58333" stroke-linecap="butt" stroke-linejoin="round" stroke-miterlimit="10" stroke-opacity="1" fill="none" fill-rule="evenodd"/><path d="M6222.5 4104.36 6962.33 4104.36" stroke="#FFFEFE" stroke-width="4.58333" stroke-linecap="butt" stroke-linejoin="round" stroke-miterlimit="10" stroke-opacity="1" fill="none" fill-rule="evenodd"/><path d="M6222.5 4751.12 6962.33 4751.12" stroke="#FFFEFE" stroke-width="4.58333" stroke-linecap="butt" stroke-linejoin="round" stroke-miterlimit="10" stroke-opacity="1" fill="none" fill-rule="evenodd"/><text fill="#343433" fill-opacity="1" font-family="Montserrat,Montserrat_MSFontService,sans-serif" font-style="normal" font-variant="normal" font-weight="700" font-stretch="normal" font-size="110" text-anchor="start" direction="ltr" writing-mode="lr-tb" unicode-bidi="normal" text-decoration="none" transform="matrix(1 0 0 1 6604.42 4226)">Test</text><text fill="#343433" fill-opacity="1" font-family="Montserrat,Montserrat_MSFontService,sans-serif" font-style="normal" font-variant="normal" font-weight="700" font-stretch="normal" font-size="110" text-anchor="start" direction="ltr" writing-mode="lr-tb" unicode-bidi="normal" text-decoration="none" transform="matrix(1 0 0 1 6302.68 4226)">Id</text><text fill="#343433" fill-opacity="1" font-family="Montserrat,Montserrat_MSFontService,sans-serif" font-style="normal" font-variant="normal" font-weight="400" font-stretch="normal" font-size="110" text-anchor="start" direction="ltr" writing-mode="lr-tb" unicode-bidi="normal" text-decoration="none" transform="matrix(1 0 0 1 6309.55 4395)">1x</text><text fill="#343433" fill-opacity="1" font-family="Montserrat,Montserrat_MSFontService,sans-serif" font-style="normal" font-variant="normal" font-weight="400" font-stretch="normal" font-size="110" text-anchor="start" direction="ltr" writing-mode="lr-tb" unicode-bidi="normal" text-decoration="none" transform="matrix(1 0 0 1 6690.93 4634)">…</text><text fill="#343433" fill-opacity="1" font-family="Montserrat,Montserrat_MSFontService,sans-serif" font-style="normal" font-variant="normal" font-weight="400" font-stretch="normal" font-size="110" text-anchor="start" direction="ltr" writing-mode="lr-tb" unicode-bidi="normal" text-decoration="none" transform="matrix(1 0 0 1 6297.81 4634)">2y</text><g><g><g><path d="M7252.25 4295.88C7252.25 4311.06 7209.16 4323.38 7156 4323.38 7102.84 4323.38 7059.75 4311.06 7059.75 4295.88 7059.75 4280.69 7102.84 4268.38 7156 4268.38 7209.16 4268.38 7252.25 4280.69 7252.25 4295.88Z" fill="#000000" fill-rule="nonzero" fill-opacity="1"/><path d="M7224.75 4364.62C7220.62 4364.62 7217.88 4361.88 7217.88 4357.75 7217.88 4353.62 7220.62 4350.88 7224.75 4350.88 7228.88 4350.88 7231.62 4353.62 7231.62 4357.75 7231.62 4361.88 7228.88 4364.62 7224.75 4364.62ZM7156 4337.12C7103.06 4337.12 7059.75 4324.75 7059.75 4309.62L7059.75 4364.62C7059.75 4379.75 7103.06 4392.12 7156 4392.12 7208.94 4392.12 7252.25 4379.75 7252.25 4364.62L7252.25 4309.62C7252.25 4324.75 7208.94 4337.12 7156 4337.12Z" fill="#000000" fill-rule="nonzero" fill-opacity="1"/><path d="M7224.75 4433.38C7220.62 4433.38 7217.88 4430.62 7217.88 4426.5 7217.88 4422.38 7220.62 4419.62 7224.75 4419.62 7228.88 4419.62 7231.62 4422.38 7231.62 4426.5 7231.62 4430.62 7228.88 4433.38 7224.75 4433.38ZM7156 4405.88C7103.06 4405.88 7059.75 4393.5 7059.75 4378.38L7059.75 4433.38C7059.75 4448.5 7103.06 4460.88 7156 4460.88 7208.94 4460.88 7252.25 4448.5 7252.25 4433.38L7252.25 4378.38C7252.25 4393.5 7208.94 4405.88 7156 4405.88Z" fill="#000000" fill-rule="nonzero" fill-opacity="1"/><path d="M7224.75 4502.12C7220.62 4502.12 7217.88 4499.38 7217.88 4495.25 7217.88 4491.12 7220.62 4488.38 7224.75 4488.38 7228.88 4488.38 7231.62 4491.12 7231.62 4495.25 7231.62 4499.38 7228.88 4502.12 7224.75 4502.12ZM7156 4474.62C7103.06 4474.62 7059.75 4462.25 7059.75 4447.12L7059.75 4502.12C7059.75 4517.25 7103.06 4529.62 7156 4529.62 7208.94 4529.62 7252.25 4517.25 7252.25 4502.12L7252.25 4447.12C7252.25 4462.25 7208.94 4474.62 7156 4474.62Z" fill="#000000" fill-rule="nonzero" fill-opacity="1"/></g></g></g><g><g><g><path d="M6597.97 4313.5C6550.77 4313.5 6512.52 4351.76 6512.52 4398.95 6512.52 4446.15 6550.77 4484.41 6597.97 4484.41 6645.16 4484.41 6683.42 4446.15 6683.42 4398.95 6683.42 4398.95 6683.42 4398.95 6683.42 4398.94 6683.44 4351.77 6645.21 4313.52 6598.04 4313.5 6598.01 4313.5 6597.99 4313.5 6597.97 4313.5ZM6607.34 4435.23 6594.34 4435.23 6594.34 4373.15C6593.25 4373.9 6592.09 4374.62 6590.87 4375.31 6589.65 4376.01 6588.39 4376.63 6587.1 4377.18 6585.7 4377.73 6584.23 4378.24 6582.69 4378.71 6581.15 4379.18 6579.45 4379.64 6577.61 4380.09L6577.61 4369.71C6578.85 4369.36 6579.99 4369.01 6581.01 4368.66 6582.03 4368.31 6583.04 4367.97 6584.03 4367.62 6585.03 4367.22 6586.03 4366.81 6587.02 4366.38 6588.02 4365.96 6589.01 4365.55 6590.01 4365.15 6590.96 4364.65 6591.91 4364.15 6592.88 4363.66 6593.85 4363.16 6594.81 4362.63 6595.76 4362.08 6596.81 4361.54 6597.85 4360.94 6598.86 4360.28 6599.88 4359.63 6600.91 4359.03 6601.96 4358.48L6607.34 4358.48Z" fill="#008347" fill-rule="nonzero" fill-opacity="1"/></g></g></g><text fill="#343433" fill-opacity="1" font-family="Montserrat,Montserrat_MSFontService,sans-serif" font-style="normal" font-variant="normal" font-weight="400" font-stretch="normal" font-size="110" text-anchor="start" direction="ltr" writing-mode="lr-tb" unicode-bidi="normal" text-decoration="none" transform="matrix(1 0 0 1 6139.66 3838)">Set</text><text fill="#343433" fill-opacity="1" font-family="Montserrat,Montserrat_MSFontService,sans-serif" font-style="normal" font-variant="normal" font-weight="400" font-stretch="normal" font-size="110" text-anchor="start" direction="ltr" writing-mode="lr-tb" unicode-bidi="normal" text-decoration="none" transform="matrix(1 0 0 1 6318.41 3838)">-</text><text fill="#343433" fill-opacity="1" font-family="Montserrat,Montserrat_MSFontService,sans-serif" font-style="normal" font-variant="normal" font-weight="400" font-stretch="normal" font-size="110" text-anchor="start" direction="ltr" writing-mode="lr-tb" unicode-bidi="normal" text-decoration="none" transform="matrix(1 0 0 1 6360.23 3838)">Cookie: id=1x</text><text fill="#343433" fill-opacity="1" font-family="Montserrat,Montserrat_MSFontService,sans-serif" font-style="italic" font-variant="normal" font-weight="400" font-stretch="normal" font-size="92" text-anchor="start" direction="ltr" writing-mode="lr-tb" unicode-bidi="normal" text-decoration="none" transform="matrix(1 0 0 1 6093.82 4029)">+ stored </text><text fill="#343433" fill-opacity="1" font-family="Montserrat,Montserrat_MSFontService,sans-serif" font-style="normal" font-variant="normal" font-weight="400" font-stretch="normal" font-size="110" text-anchor="start" direction="ltr" writing-mode="lr-tb" unicode-bidi="normal" text-decoration="none" transform="matrix(1 0 0 1 6487.99 4029)">Server</text><text fill="#343433" fill-opacity="1" font-family="Montserrat,Montserrat_MSFontService,sans-serif" font-style="normal" font-variant="normal" font-weight="400" font-stretch="normal" font-size="110" text-anchor="start" direction="ltr" writing-mode="lr-tb" unicode-bidi="normal" text-decoration="none" transform="matrix(1 0 0 1 6836.32 4029)">-</text><text fill="#343433" fill-opacity="1" font-family="Montserrat,Montserrat_MSFontService,sans-serif" font-style="normal" font-variant="normal" font-weight="400" font-stretch="normal" font-size="110" text-anchor="start" direction="ltr" writing-mode="lr-tb" unicode-bidi="normal" text-decoration="none" transform="matrix(1 0 0 1 6878.15 4029)">side</text><path d="M4878.88 3432 4878.88 3473.25 4865.12 3473.25 4865.12 3432ZM4878.88 3487 4878.88 3507.68 4865.13 3507.68 4865.12 3487ZM4892.62 3500.8 4872 3542.05 4851.38 3500.8Z" fill="#0B234E" fill-rule="nonzero" fill-opacity="1"/><path d="M2.21876e-06-6.875 1104.65-6.87464 1104.65 6.87536-2.21876e-06 6.875ZM1066.85-30.0006 1118.28 0.000359324 1066.85 30.0013C1063.57 31.9145 1059.36 30.8067 1057.45 27.527 1055.54 24.2472 1056.65 20.0375 1059.92 18.1244L1059.92 18.1244 1101.17-5.93812 1101.17 5.93884 1059.92-18.1237C1056.65-20.0369 1055.54-24.2465 1057.45-27.5263 1059.36-30.806 1063.57-31.9138 1066.85-30.0006Z" fill="#008347" fill-rule="nonzero" fill-opacity="1" transform="matrix(-1 0 0 1 4481.25 4036)"/><g><g><g><path d="M210.938 147.656 210.938 159.081C210.937 159.096 210.925 159.109 210.909 159.109 210.902 159.108 210.895 159.105 210.89 159.1L173.551 121.762C172.434 120.683 170.653 120.713 169.574 121.831 168.521 122.921 168.521 124.649 169.574 125.739L211.762 167.926C212.86 169.024 214.64 169.024 215.739 167.926L257.926 125.739C259.005 124.621 258.974 122.841 257.857 121.762 256.767 120.709 255.039 120.709 253.949 121.762L216.61 159.1C216.6 159.111 216.582 159.111 216.571 159.1 216.566 159.095 216.563 159.088 216.563 159.081L216.563 147.656C216.561 92.5142 171.859 47.8137 116.716 47.8151 61.5741 47.8165 16.8736 92.5192 16.875 147.661 16.8757 174.29 27.5132 199.814 46.4232 218.562 47.5268 219.657 49.3085 219.649 50.4029 218.545 51.4972 217.442 51.4896 215.66 50.386 214.566 13.4318 177.931 13.1728 118.276 49.8074 81.3215 86.442 44.3672 146.098 44.1085 183.052 80.743 200.899 98.4359 210.938 122.526 210.938 147.656Z" stroke="#343433" stroke-width="9.23077" stroke-linecap="butt" stroke-linejoin="miter" stroke-miterlimit="4" stroke-opacity="1" fill="#000000" fill-rule="nonzero" fill-opacity="1" transform="matrix(-1 1.22465e-16 -1.22918e-16 -1.0037 6733 3704)"/></g></g></g><path d="M0-6.875 608.747-6.875 608.747 844.5 601.872 837.625 1190.13 837.625 1190.13 851.375 594.997 851.375 594.997 0 601.872 6.875 0 6.875ZM1152.35 814.499 1203.78 844.5 1152.35 874.501C1149.07 876.414 1144.86 875.306 1142.94 872.026 1141.03 868.747 1142.14 864.537 1145.42 862.624L1186.67 838.561 1186.67 850.438 1145.42 826.376C1142.14 824.463 1141.03 820.253 1142.94 816.973 1144.86 813.693 1149.07 812.586 1152.35 814.499Z" fill="#0B234E" fill-rule="nonzero" fill-opacity="1" transform="matrix(1 0 0 -1 3395 4310.5)"/><g><g><g><path d="M180.2 106C180.2 146.98 146.98 180.2 106 180.2 65.0205 180.2 31.8 146.98 31.8 106 31.8 65.0205 65.0205 31.8 106 31.8 146.98 31.8 180.2 65.0205 180.2 106Z" fill="#D2A679" fill-rule="nonzero" fill-opacity="1" transform="matrix(1 0 0 1.00472 7050 3693)"/><path d="M180.2 63.6C180.2 81.1627 165.963 95.4 148.4 95.4 130.837 95.4 116.6 81.1627 116.6 63.6 116.6 46.0374 130.837 31.8 148.4 31.8 165.963 31.8 180.2 46.0374 180.2 63.6Z" fill="#FFFFFF" fill-rule="nonzero" fill-opacity="1" transform="matrix(1 0 0 1.00472 7050 3693)"/><path d="M97.5201 84.8C97.5201 91.8251 91.8251 97.5201 84.8 97.5201 77.775 97.5201 72.08 91.8251 72.08 84.8 72.08 77.775 77.775 72.08 84.8 72.08 91.8251 72.08 97.5201 77.775 97.5201 84.8Z" fill="#8B5A2B" fill-rule="nonzero" fill-opacity="1" transform="matrix(1 0 0 1.00472 7050 3693)"/><path d="M137.8 137.8C137.8 143.654 133.054 148.4 127.2 148.4 121.346 148.4 116.6 143.654 116.6 137.8 116.6 131.946 121.346 127.2 127.2 127.2 133.054 127.2 137.8 131.946 137.8 137.8Z" fill="#8B5A2B" fill-rule="nonzero" fill-opacity="1" transform="matrix(1 0 0 1.00472 7050 3693)"/><path d="M82.68 137.8C82.68 142.483 78.8834 146.28 74.2 146.28 69.5167 146.28 65.72 142.483 65.72 137.8 65.72 133.117 69.5167 129.32 74.2 129.32 78.8834 129.32 82.68 133.117 82.68 137.8Z" fill="#8B5A2B" fill-rule="nonzero" fill-opacity="1" transform="matrix(1 0 0 1.00472 7050 3693)"/></g></g></g><path d="M6208.55 3495.46 6172.47 3495.45 6136.68 3495.41 6101.45 3495.34 6067.06 3495.26 6033.81 3495.16 6017.69 3495.1 6001.96 3495.04 5986.66 3494.97 5971.81 3494.9 5957.46 3494.82 5943.63 3494.74 5930.37 3494.66 5917.71 3494.57 5905.69 3494.49 5894.33 3494.4 5883.68 3494.3 5873.77 3494.21 5864.63 3494.11 5856.3 3494.01 5848.82 3493.91 5842.21 3493.8 5836.51 3493.7 5831.75 3493.59 5827.96 3493.48 5825.13 3493.37 5822.96 3493.23 5821.98 3493.04 5821.42 3492.94 5822.27 3493.04 5820.62 3492.94 5820.79 3492.95 5818.08 3492.84 5818.16 3492.84 5814.43 3492.74 5814.47 3492.74 5809.75 3492.63 5809.77 3492.63 5804.1 3492.53 5797.53 3492.43 5790.07 3492.32 5781.76 3492.22 5772.64 3492.13 5762.74 3492.03 5752.1 3491.94 5740.76 3491.85 5728.74 3491.76 5716.09 3491.67 5702.83 3491.59 5689.02 3491.51 5674.67 3491.44 5659.83 3491.37 5644.53 3491.3 5628.8 3491.23 5612.69 3491.18 5579.45 3491.07 5545.07 3490.99 5509.85 3490.93 5474.06 3490.89 5451.61 3490.88 5451.61 3477.13 5474.08 3477.14 5509.87 3477.18 5545.1 3477.24 5579.49 3477.32 5612.74 3477.43 5628.86 3477.48 5644.59 3477.55 5659.89 3477.62 5674.74 3477.69 5689.09 3477.76 5702.92 3477.84 5716.18 3477.92 5728.84 3478.01 5740.87 3478.1 5752.22 3478.19 5762.88 3478.28 5772.79 3478.38 5781.93 3478.48 5790.26 3478.58 5797.74 3478.68 5804.35 3478.78 5810.04 3478.89 5814.79 3478.99 5818.59 3479.1 5821.42 3479.21 5823.59 3479.35 5824.57 3479.54 5825.13 3479.65 5824.28 3479.54 5825.93 3479.65 5825.76 3479.64 5828.47 3479.74 5828.39 3479.74 5832.12 3479.85 5832.08 3479.85 5836.8 3479.95 5836.77 3479.95 5842.43 3480.05 5849.01 3480.16 5856.47 3480.26 5864.78 3480.36 5873.9 3480.46 5883.8 3480.55 5894.44 3480.65 5905.79 3480.74 5917.81 3480.82 5930.46 3480.91 5943.71 3480.99 5957.53 3481.07 5971.88 3481.15 5986.72 3481.22 6002.02 3481.29 6017.74 3481.35 6033.85 3481.41 6067.1 3481.51 6101.47 3481.59 6136.69 3481.66 6172.48 3481.7 6208.55 3481.71ZM5489.39 3514.02 5437.97 3484 5489.41 3454.02C5492.69 3452.11 5496.9 3453.22 5498.81 3456.5 5500.72 3459.78 5499.61 3463.99 5496.33 3465.9L5455.07 3489.94 5455.08 3478.07 5496.32 3502.15C5499.6 3504.06 5500.71 3508.27 5498.79 3511.55 5496.88 3514.83 5492.67 3515.93 5489.39 3514.02Z" fill="#008347" fill-rule="nonzero" fill-opacity="1"/><g><g><g><path d="M107.968 22.5C60.7743 22.5 22.5157 60.7585 22.5157 107.953 22.5157 155.147 60.7743 193.405 107.968 193.405 155.163 193.405 193.421 155.147 193.421 107.953 193.421 107.95 193.421 107.948 193.421 107.946 193.437 60.7716 155.208 22.5162 108.034 22.5 108.012 22.5 107.99 22.5 107.968 22.5ZM132.399 146.27 83.5402 146.27 83.5402 139.099C83.4956 136.094 84.0541 133.11 85.1827 130.324 86.2888 127.696 87.8145 125.264 89.7007 123.124 91.7079 120.853 93.9503 118.8 96.3899 117 98.9309 115.108 101.67 113.266 104.607 111.472 107.066 109.999 109.399 108.324 111.582 106.465 113.223 105.065 114.681 103.464 115.922 101.7 116.944 100.24 117.692 98.6073 118.129 96.8804 118.54 95.1171 118.74 93.3113 118.726 91.5007 118.728 89.927 118.476 88.3633 117.979 86.8702 117.51 85.43 116.761 84.0971 115.774 82.9484 114.745 81.7816 113.469 80.8591 112.039 80.2485 110.374 79.5476 108.58 79.204 106.774 79.2404 103.246 79.2272 99.7643 80.0466 96.6127 81.6322 93.2984 83.3141 90.2524 85.4788 87.5744 88.0559L87.5744 76.401C90.1622 73.9905 93.2656 72.202 96.6487 71.172 100.299 70.0895 104.091 69.5585 107.899 69.597 110.939 69.5758 113.964 70.0314 116.863 70.947 119.53 71.777 122.015 73.1081 124.184 74.8687 126.293 76.6091 127.979 78.8055 129.116 81.2924 130.354 84.0496 130.968 87.0457 130.916 90.0674 130.942 92.785 130.627 95.4949 129.978 98.1337 129.342 100.611 128.302 102.967 126.9 105.106 125.337 107.462 123.467 109.598 121.338 111.458 118.718 113.743 115.919 115.816 112.97 117.657 110.279 119.352 107.888 120.921 105.797 122.364 103.903 123.65 102.116 125.086 100.453 126.659 99.1012 127.927 97.9778 129.418 97.1324 131.067 96.3722 132.639 95.9872 134.365 96.0074 136.111L132.39 136.111Z" fill="#0B234E" fill-rule="nonzero" fill-opacity="1" transform="matrix(1 0 0 1 6706 4291)"/></g></g></g><path d="M0-6.875 383.804-6.875 383.804 0.000360892 376.929-6.87464 756.936-6.87464 756.936 6.87536 370.054 6.87536 370.054 0 376.929 6.875 0 6.875ZM719.151-30.0006 770.581 0.000360892 719.151 30.0013C715.871 31.9145 711.661 30.8067 709.748 27.527 707.835 24.2472 708.943 20.0376 712.222 18.1244L753.472-5.93812 753.472 5.93884 712.222-18.1237C708.943-20.0368 707.835-24.2465 709.748-27.5263 711.661-30.806 715.871-31.9138 719.151-30.0006Z" fill="#0B234E" fill-rule="nonzero" fill-opacity="1" transform="matrix(1 0 0 -1 5442 3432)"/><text fill="#343433" fill-opacity="1" font-family="Montserrat,Montserrat_MSFontService,sans-serif" font-style="italic" font-variant="normal" font-weight="400" font-stretch="normal" font-size="92" text-anchor="start" direction="ltr" writing-mode="lr-tb" unicode-bidi="normal" text-decoration="none" transform="matrix(1 0 0 1 5626.61 3396)">Request</text><path d="M6206.55 3630.46 6170.47 3630.45 6134.68 3630.41 6099.45 3630.34 6065.06 3630.26 6031.81 3630.16 6015.69 3630.1 5999.96 3630.04 5984.66 3629.97 5969.81 3629.9 5955.46 3629.82 5941.63 3629.74 5928.37 3629.66 5915.71 3629.57 5903.69 3629.49 5892.33 3629.4 5881.68 3629.3 5871.77 3629.21 5862.63 3629.11 5854.3 3629.01 5846.82 3628.91 5840.21 3628.8 5834.51 3628.7 5829.75 3628.59 5825.96 3628.48 5823.13 3628.37 5820.96 3628.23 5819.98 3628.04 5819.42 3627.94 5820.27 3628.04 5818.62 3627.94 5818.79 3627.95 5816.08 3627.84 5816.16 3627.84 5812.43 3627.74 5812.47 3627.74 5807.75 3627.63 5807.77 3627.63 5802.1 3627.53 5795.53 3627.43 5788.07 3627.32 5779.76 3627.22 5770.64 3627.13 5760.74 3627.03 5750.1 3626.94 5738.76 3626.85 5726.74 3626.76 5714.09 3626.67 5700.83 3626.59 5687.02 3626.51 5672.67 3626.44 5657.83 3626.37 5642.53 3626.3 5626.8 3626.23 5610.69 3626.18 5577.45 3626.07 5543.07 3625.99 5507.85 3625.93 5472.06 3625.89 5449.61 3625.88 5449.61 3612.13 5472.08 3612.14 5507.87 3612.18 5543.1 3612.24 5577.49 3612.32 5610.74 3612.43 5626.86 3612.48 5642.59 3612.55 5657.89 3612.62 5672.74 3612.69 5687.09 3612.76 5700.92 3612.84 5714.18 3612.92 5726.84 3613.01 5738.87 3613.1 5750.22 3613.19 5760.88 3613.28 5770.79 3613.38 5779.93 3613.48 5788.26 3613.58 5795.74 3613.68 5802.35 3613.78 5808.04 3613.89 5812.79 3613.99 5816.59 3614.1 5819.42 3614.21 5821.59 3614.35 5822.57 3614.54 5823.13 3614.65 5822.28 3614.54 5823.93 3614.65 5823.76 3614.64 5826.47 3614.74 5826.39 3614.74 5830.12 3614.85 5830.08 3614.85 5834.8 3614.95 5834.77 3614.95 5840.43 3615.05 5847.01 3615.16 5854.47 3615.26 5862.78 3615.36 5871.9 3615.46 5881.8 3615.55 5892.44 3615.65 5903.79 3615.74 5915.81 3615.82 5928.46 3615.91 5941.71 3615.99 5955.53 3616.07 5969.88 3616.15 5984.72 3616.22 6000.02 3616.29 6015.74 3616.35 6031.85 3616.41 6065.1 3616.51 6099.47 3616.59 6134.69 3616.66 6170.48 3616.7 6206.55 3616.71ZM5487.39 3649.02 5435.97 3619 5487.41 3589.02C5490.69 3587.11 5494.9 3588.22 5496.81 3591.5 5498.72 3594.78 5497.61 3598.99 5494.33 3600.9L5453.07 3624.94 5453.08 3613.07 5494.32 3637.15C5497.6 3639.06 5498.71 3643.27 5496.79 3646.55 5494.88 3649.83 5490.67 3650.93 5487.39 3649.02Z" fill="#0B234E" fill-rule="nonzero" fill-opacity="1"/><text fill="#343433" fill-opacity="1" font-family="Montserrat,Montserrat_MSFontService,sans-serif" font-style="italic" font-variant="normal" font-weight="400" font-stretch="normal" font-size="92" text-anchor="start" direction="ltr" writing-mode="lr-tb" unicode-bidi="normal" text-decoration="none" transform="matrix(1 0 0 1 5617.04 3590)">Response</text><path d="M2.21876e-06-6.875 1104.65-6.87464 1104.65 6.87536-2.21876e-06 6.875ZM1066.85-30.0006 1118.28 0.000359324 1066.85 30.0013C1063.57 31.9145 1059.36 30.8067 1057.45 27.527 1055.54 24.2472 1056.65 20.0375 1059.92 18.1244L1059.92 18.1244 1101.17-5.93812 1101.17 5.93884 1059.92-18.1237C1056.65-20.0369 1055.54-24.2465 1057.45-27.5263 1059.36-30.806 1063.57-31.9138 1066.85-30.0006Z" fill="#0B234E" fill-rule="nonzero" fill-opacity="1" transform="matrix(-1 0 0 1 4481.25 4375)"/><text fill="#343433" fill-opacity="1" font-family="Montserrat,Montserrat_MSFontService,sans-serif" font-style="italic" font-variant="normal" font-weight="400" font-stretch="normal" font-size="92" text-anchor="start" direction="ltr" writing-mode="lr-tb" unicode-bidi="normal" text-decoration="none" transform="matrix(1 0 0 1 4118.85 3431)">Intent</text><text fill="#343433" fill-opacity="1" font-family="Montserrat,Montserrat_MSFontService,sans-serif" font-style="italic" font-variant="normal" font-weight="400" font-stretch="normal" font-size="92" text-anchor="start" direction="ltr" writing-mode="lr-tb" unicode-bidi="normal" text-decoration="none" transform="matrix(1 0 0 1 4032.14 4181)">rendered </text><text fill="#343433" fill-opacity="1" font-family="Montserrat,Montserrat_MSFontService,sans-serif" font-style="italic" font-variant="normal" font-weight="400" font-stretch="normal" font-size="92" text-anchor="start" direction="ltr" writing-mode="lr-tb" unicode-bidi="normal" text-decoration="none" transform="matrix(1 0 0 1 4094.89 4291)">in App</text><text fill="#343433" fill-opacity="1" font-family="Montserrat,Montserrat_MSFontService,sans-serif" font-style="italic" font-variant="normal" font-weight="400" font-stretch="normal" font-size="92" text-anchor="start" direction="ltr" writing-mode="lr-tb" unicode-bidi="normal" text-decoration="none" transform="matrix(1 0 0 1 5433.47 4296)">Note:</text><text fill="#008347" fill-opacity="1" font-family="Arial,Arial_MSFontService,sans-serif" font-style="normal" font-variant="normal" font-weight="400" font-stretch="normal" font-size="92" text-anchor="start" direction="ltr" writing-mode="lr-tb" unicode-bidi="normal" text-decoration="none" transform="matrix(1 0 0 1 5433.47 4406)">•</text><text fill="#008347" fill-opacity="1" font-family="Montserrat,Montserrat_MSFontService,sans-serif" font-style="italic" font-variant="normal" font-weight="400" font-stretch="normal" font-size="92" text-anchor="start" direction="ltr" writing-mode="lr-tb" unicode-bidi="normal" text-decoration="none" transform="matrix(1 0 0 1 5557.22 4406)">Stores</text><text fill="#0B234E" fill-opacity="1" font-family="Arial,Arial_MSFontService,sans-serif" font-style="normal" font-variant="normal" font-weight="400" font-stretch="normal" font-size="92" text-anchor="start" direction="ltr" writing-mode="lr-tb" unicode-bidi="normal" text-decoration="none" transform="matrix(1 0 0 1 5433.47 4516)">•</text><text fill="#0B234E" fill-opacity="1" font-family="Montserrat,Montserrat_MSFontService,sans-serif" font-style="italic" font-variant="normal" font-weight="400" font-stretch="normal" font-size="92" text-anchor="start" direction="ltr" writing-mode="lr-tb" unicode-bidi="normal" text-decoration="none" transform="matrix(1 0 0 1 5557.22 4516)">Includes</text><g><g><g><path d="M140.25 82.5C140.25 114.394 114.394 140.25 82.5 140.25 50.6056 140.25 24.75 114.394 24.75 82.5 24.75 50.6056 50.6056 24.75 82.5 24.75 114.394 24.75 140.25 50.6056 140.25 82.5Z" fill="#D2A679" fill-rule="nonzero" fill-opacity="1" transform="matrix(1.00606 0 0 1 5860 4285)"/><path d="M140.25 49.5C140.25 63.169 129.169 74.25 115.5 74.25 101.831 74.25 90.75 63.169 90.75 49.5 90.75 35.831 101.831 24.75 115.5 24.75 129.169 24.75 140.25 35.831 140.25 49.5Z" fill="#FFFFFF" fill-rule="nonzero" fill-opacity="1" transform="matrix(1.00606 0 0 1 5860 4285)"/><path d="M75.9 66C75.9 71.4676 71.4676 75.9 66 75.9 60.5324 75.9 56.1 71.4676 56.1 66 56.1 60.5324 60.5324 56.1 66 56.1 71.4676 56.1 75.9 60.5324 75.9 66Z" fill="#8B5A2B" fill-rule="nonzero" fill-opacity="1" transform="matrix(1.00606 0 0 1 5860 4285)"/><path d="M107.25 107.25C107.25 111.806 103.556 115.5 99 115.5 94.4436 115.5 90.75 111.806 90.75 107.25 90.75 102.694 94.4436 99 99 99 103.556 99 107.25 102.694 107.25 107.25Z" fill="#8B5A2B" fill-rule="nonzero" fill-opacity="1" transform="matrix(1.00606 0 0 1 5860 4285)"/><path d="M64.35 107.25C64.35 110.895 61.3951 113.85 57.75 113.85 54.1049 113.85 51.15 110.895 51.15 107.25 51.15 103.605 54.1049 100.65 57.75 100.65 61.3951 100.65 64.35 103.605 64.35 107.25Z" fill="#8B5A2B" fill-rule="nonzero" fill-opacity="1" transform="matrix(1.00606 0 0 1 5860 4285)"/></g></g></g><g><g><g><path d="M6102.25 4481.5C6102.25 4513.39 6076.39 4539.25 6044.5 4539.25 6012.61 4539.25 5986.75 4513.39 5986.75 4481.5 5986.75 4449.61 6012.61 4423.75 6044.5 4423.75 6076.39 4423.75 6102.25 4449.61 6102.25 4481.5Z" fill="#D2A679" fill-rule="nonzero" fill-opacity="1"/><path d="M6102.25 4448.5C6102.25 4462.17 6091.17 4473.25 6077.5 4473.25 6063.83 4473.25 6052.75 4462.17 6052.75 4448.5 6052.75 4434.83 6063.83 4423.75 6077.5 4423.75 6091.17 4423.75 6102.25 4434.83 6102.25 4448.5Z" fill="#FFFFFF" fill-rule="nonzero" fill-opacity="1"/><path d="M6037.9 4465C6037.9 4470.47 6033.47 4474.9 6028 4474.9 6022.53 4474.9 6018.1 4470.47 6018.1 4465 6018.1 4459.53 6022.53 4455.1 6028 4455.1 6033.47 4455.1 6037.9 4459.53 6037.9 4465Z" fill="#8B5A2B" fill-rule="nonzero" fill-opacity="1"/><path d="M6069.25 4506.25C6069.25 4510.81 6065.56 4514.5 6061 4514.5 6056.44 4514.5 6052.75 4510.81 6052.75 4506.25 6052.75 4501.69 6056.44 4498 6061 4498 6065.56 4498 6069.25 4501.69 6069.25 4506.25Z" fill="#8B5A2B" fill-rule="nonzero" fill-opacity="1"/><path d="M6026.35 4506.25C6026.35 4509.9 6023.4 4512.85 6019.75 4512.85 6016.1 4512.85 6013.15 4509.9 6013.15 4506.25 6013.15 4502.6 6016.1 4499.65 6019.75 4499.65 6023.4 4499.65 6026.35 4502.6 6026.35 4506.25Z" fill="#8B5A2B" fill-rule="nonzero" fill-opacity="1"/></g></g></g></g></g></svg>