<svg width="197" height="239" xmlns="http://www.w3.org/2000/svg" xmlns:xlink="http://www.w3.org/1999/xlink" xml:space="preserve" overflow="hidden"><g transform="translate(-2461 -9771)"><g><g><g><g><path d="M150.96 82.3416 152.675 82.3416 152.675 54.8945 12.0082 54.8945 12.0082 82.3416 13.7236 82.3416C20.5925 82.3416 26.1606 87.9098 26.1606 94.7788 26.1606 101.647 20.5925 107.216 13.7236 107.216L12.0082 107.216 12.0082 133.805 152.675 133.805 152.675 107.216 150.96 107.216C144.091 107.216 138.523 101.647 138.523 94.7788 138.523 87.9098 144.091 82.3416 150.96 82.3416ZM135.092 94.7788C135.098 102.877 141.194 109.675 149.244 110.561L149.244 130.374 120.082 130.374 120.082 123.512 116.651 123.512 116.651 130.374 15.4391 130.374 15.4391 110.554C24.1515 109.608 30.4479 101.779 29.5024 93.0665 28.6983 85.6584 22.8474 79.8072 15.4391 79.0036L15.4391 58.3254 116.651 58.3254 116.651 65.1872 120.082 65.1872 120.082 58.3254 149.244 58.3254 149.244 79.0036C141.197 79.8886 135.102 86.6829 135.092 94.7788Z" fill="#000000" fill-rule="nonzero" fill-opacity="1" transform="matrix(1.00199 0 0 1 2480.33 9824.32)"/><path d="M116.651 72.0492 120.082 72.0492 120.082 82.3416 116.651 82.3416Z" fill="#000000" fill-rule="nonzero" fill-opacity="1" transform="matrix(1.00199 0 0 1 2480.33 9824.32)"/><path d="M116.651 89.2034 120.082 89.2034 120.082 99.4964 116.651 99.4964Z" fill="#000000" fill-rule="nonzero" fill-opacity="1" transform="matrix(1.00199 0 0 1 2480.33 9824.32)"/><path d="M116.651 106.358 120.082 106.358 120.082 116.651 116.651 116.651Z" fill="#000000" fill-rule="nonzero" fill-opacity="1" transform="matrix(1.00199 0 0 1 2480.33 9824.32)"/><path d="M41.1709 78.911 97.7808 78.911 97.7808 82.3416 41.1709 82.3416Z" fill="#000000" fill-rule="nonzero" fill-opacity="1" transform="matrix(1.00199 0 0 1 2480.33 9824.32)"/><path d="M41.1709 92.6346 73.7642 92.6346 73.7642 96.0652 41.1709 96.0652Z" fill="#000000" fill-rule="nonzero" fill-opacity="1" transform="matrix(1.00199 0 0 1 2480.33 9824.32)"/><path d="M41.1709 106.358 85.7728 106.358 85.7728 109.789 41.1709 109.789Z" fill="#000000" fill-rule="nonzero" fill-opacity="1" transform="matrix(1.00199 0 0 1 2480.33 9824.32)"/><path d="M43.8178 49.7481 60.1729 49.7481 129.964 36.3178 132.553 49.7481 136.048 49.7481 132.683 32.3003 43.7852 49.405C43.6905 49.414 43.621 49.4981 43.6299 49.5929 43.6389 49.6876 43.7231 49.757 43.8178 49.7481Z" fill="#000000" fill-rule="nonzero" fill-opacity="1" transform="matrix(1.00199 0 0 1 2480.33 9824.32)"/><path d="M1152.78 5961.51C1152.78 5971.69 1144.52 5979.95 1134.33 5979.95 1124.15 5979.95 1115.89 5971.69 1115.89 5961.51 1115.89 5951.33 1124.15 5943.06 1134.33 5943.06 1144.52 5943.06 1152.78 5951.33 1152.78 5961.51Z" fill="#D2A679" fill-rule="nonzero" fill-opacity="1" transform="matrix(1.00602 0 0 1 1455.8 3972.16)"/><path d="M1152.78 5950.97C1152.78 5955.34 1149.24 5958.87 1144.87 5958.87 1140.51 5958.87 1136.97 5955.34 1136.97 5950.97 1136.97 5946.6 1140.51 5943.06 1144.87 5943.06 1149.24 5943.06 1152.78 5946.6 1152.78 5950.97Z" fill="#FFFFFF" fill-rule="nonzero" fill-opacity="1" transform="matrix(1.00602 0 0 1 1455.8 3972.16)"/><path d="M1132.23 5956.24C1132.23 5957.98 1130.81 5959.4 1129.06 5959.4 1127.32 5959.4 1125.9 5957.98 1125.9 5956.24 1125.9 5954.49 1127.32 5953.08 1129.06 5953.08 1130.81 5953.08 1132.23 5954.49 1132.23 5956.24Z" fill="#8B5A2B" fill-rule="nonzero" fill-opacity="1" transform="matrix(1.00602 0 0 1 1455.8 3972.16)"/><path d="M1142.24 5969.41C1142.24 5970.87 1141.06 5972.05 1139.6 5972.05 1138.15 5972.05 1136.97 5970.87 1136.97 5969.41 1136.97 5967.96 1138.15 5966.78 1139.6 5966.78 1141.06 5966.78 1142.24 5967.96 1142.24 5969.41Z" fill="#8B5A2B" fill-rule="nonzero" fill-opacity="1" transform="matrix(1.00602 0 0 1 1455.8 3972.16)"/><path d="M1128.54 5969.41C1128.54 5970.58 1127.59 5971.52 1126.43 5971.52 1125.26 5971.52 1124.32 5970.58 1124.32 5969.41 1124.32 5968.25 1125.26 5967.31 1126.43 5967.31 1127.59 5967.31 1128.54 5968.25 1128.54 5969.41Z" fill="#8B5A2B" fill-rule="nonzero" fill-opacity="1" transform="matrix(1.00602 0 0 1 1455.8 3972.16)"/></g></g></g><path d="M2489 9808 2629 9808C2640.6 9808 2650 9817.4 2650 9829L2650 9969C2650 9988.33 2634.33 10004 2615 10004L2503 10004C2483.67 10004 2468 9988.33 2468 9969L2468 9829C2468 9817.4 2477.4 9808 2489 9808Z" stroke="#000000" stroke-width="11.6492" stroke-linecap="butt" stroke-linejoin="miter" stroke-miterlimit="8" stroke-opacity="1" fill="none" fill-rule="evenodd"/><path d="M2629 9787C2632.87 9787 2636 9787 2636 9787L2636 9808C2636 9808 2632.87 9808 2629 9808L2489 9808C2485.13 9808 2482 9808 2482 9808L2482 9787C2482 9787 2485.13 9787 2489 9787Z" stroke="#000000" stroke-width="11.6492" stroke-linecap="butt" stroke-linejoin="miter" stroke-miterlimit="8" stroke-opacity="1" fill="none" fill-rule="evenodd"/><path d="M2594 9780C2597.87 9780 2601 9780 2601 9780L2601 9794C2601 9794 2597.87 9794 2594 9794L2524 9794C2520.13 9794 2517 9794 2517 9794L2517 9780C2517 9780 2520.13 9780 2524 9780Z" stroke="#000000" stroke-width="11.6492" stroke-linecap="butt" stroke-linejoin="miter" stroke-miterlimit="8" stroke-opacity="1" fill="none" fill-rule="evenodd"/></g></g></svg>