<svg width="252" height="252" xmlns="http://www.w3.org/2000/svg" xmlns:xlink="http://www.w3.org/1999/xlink" xml:space="preserve" overflow="hidden"><g transform="translate(-1544 -8882)"><g><g><g><g><path d="M228.25 124.5 230.844 124.5 230.844 83.0001 18.1563 83.0001 18.1563 124.5 20.75 124.5C31.1357 124.5 39.5547 132.919 39.5547 143.305 39.5547 153.69 31.1357 162.11 20.75 162.11L18.1563 162.11 18.1563 202.313 230.844 202.313 230.844 162.11 228.25 162.11C217.865 162.11 209.446 153.69 209.446 143.305 209.446 132.919 217.865 124.5 228.25 124.5ZM204.258 143.305C204.268 155.55 213.485 165.828 225.656 167.167L225.656 197.125 181.563 197.125 181.563 186.75 176.375 186.75 176.375 197.125 23.3438 197.125 23.3438 167.157C36.5169 165.727 46.037 153.889 44.6074 140.716 43.3917 129.515 34.5452 120.668 23.3438 119.453L23.3438 88.1876 176.375 88.1876 176.375 98.5626 181.563 98.5626 181.563 88.1876 225.656 88.1876 225.656 119.453C213.489 120.791 204.273 131.064 204.258 143.305Z" fill="#000000" fill-rule="nonzero" fill-opacity="1" transform="matrix(1 0 0 1.00402 1546 8884)"/><path d="M176.375 108.938 181.563 108.938 181.563 124.5 176.375 124.5Z" fill="#000000" fill-rule="nonzero" fill-opacity="1" transform="matrix(1 0 0 1.00402 1546 8884)"/><path d="M176.375 134.875 181.563 134.875 181.563 150.438 176.375 150.438Z" fill="#000000" fill-rule="nonzero" fill-opacity="1" transform="matrix(1 0 0 1.00402 1546 8884)"/><path d="M176.375 160.813 181.563 160.813 181.563 176.375 176.375 176.375Z" fill="#000000" fill-rule="nonzero" fill-opacity="1" transform="matrix(1 0 0 1.00402 1546 8884)"/><path d="M62.2501 119.313 147.844 119.313 147.844 124.5 62.2501 124.5Z" fill="#000000" fill-rule="nonzero" fill-opacity="1" transform="matrix(1 0 0 1.00402 1546 8884)"/><path d="M62.2501 140.063 111.531 140.063 111.531 145.25 62.2501 145.25Z" fill="#000000" fill-rule="nonzero" fill-opacity="1" transform="matrix(1 0 0 1.00402 1546 8884)"/><path d="M62.2501 160.813 129.688 160.813 129.688 166 62.2501 166Z" fill="#000000" fill-rule="nonzero" fill-opacity="1" transform="matrix(1 0 0 1.00402 1546 8884)"/><path d="M66.2522 75.2188 90.981 75.2188 196.505 54.9123 200.419 75.2188 205.703 75.2188 200.616 48.8378 66.2029 74.7001C66.0598 74.7136 65.9547 74.8409 65.9682 74.9841 65.9817 75.1273 66.109 75.2323 66.2522 75.2188Z" fill="#000000" fill-rule="nonzero" fill-opacity="1" transform="matrix(1 0 0 1.00402 1546 8884)"/></g></g></g><g><g><g><path d="M1750 9050C1750 9065.46 1737.46 9078 1722 9078 1706.54 9078 1694 9065.46 1694 9050 1694 9034.54 1706.54 9022 1722 9022 1737.46 9022 1750 9034.54 1750 9050Z" fill="#D2A679" fill-rule="nonzero" fill-opacity="1"/><path d="M1750 9034C1750 9040.63 1744.63 9046 1738 9046 1731.37 9046 1726 9040.63 1726 9034 1726 9027.37 1731.37 9022 1738 9022 1744.63 9022 1750 9027.37 1750 9034Z" fill="#FFFFFF" fill-rule="nonzero" fill-opacity="1"/><path d="M1718.8 9042C1718.8 9044.65 1716.65 9046.8 1714 9046.8 1711.35 9046.8 1709.2 9044.65 1709.2 9042 1709.2 9039.35 1711.35 9037.2 1714 9037.2 1716.65 9037.2 1718.8 9039.35 1718.8 9042Z" fill="#8B5A2B" fill-rule="nonzero" fill-opacity="1"/><path d="M1734 9062C1734 9064.21 1732.21 9066 1730 9066 1727.79 9066 1726 9064.21 1726 9062 1726 9059.79 1727.79 9058 1730 9058 1732.21 9058 1734 9059.79 1734 9062Z" fill="#8B5A2B" fill-rule="nonzero" fill-opacity="1"/><path d="M1713.2 9062C1713.2 9063.77 1711.77 9065.2 1710 9065.2 1708.23 9065.2 1706.8 9063.77 1706.8 9062 1706.8 9060.23 1708.23 9058.8 1710 9058.8 1711.77 9058.8 1713.2 9060.23 1713.2 9062Z" fill="#8B5A2B" fill-rule="nonzero" fill-opacity="1"/></g></g></g></g></g></svg>